<?xml version="1.0" standalone="no"?>
<!DOCTYPE svg PUBLIC "-//W3C//DTD SVG 20010904//EN"
 "https://www.w3.org/TR/2001/REC-SVG-20010904/DTD/svg10.dtd">
<svg version="1.0" xmlns="https://www.w3.org/2000/svg"
 width="1000.000000pt" height="1000.000000pt" viewBox="0 0 1000.000000 1000.000000"
 preserveAspectRatio="xMidYMid meet">
<metadata>
Created by potrace 1.11, written by Peter Selinger 2001-2013
</metadata>
<g transform="translate(0.000000,1000.000000) scale(0.100000,-0.100000)"
fill="#000000" stroke="none">
<path d="M4725 9794 c-1042 -66 -1989 -440 -2794 -1103 -162 -134 -488 -460
-622 -622 -618 -750 -976 -1601 -1086 -2581 -24 -215 -24 -751 0 -966 110
-980 468 -1831 1086 -2581 134 -162 460 -488 622 -622 750 -618 1601 -976
2581 -1086 215 -24 751 -24 966 0 980 110 1831 468 2581 1086 162 134 488 460
622 622 618 750 976 1601 1086 2581 24 215 24 751 0 966 -110 980 -468 1831
-1086 2581 -134 162 -460 488 -622 622 -748 616 -1611 979 -2574 1085 -133 14
-630 26 -760 18z m510 -344 c1116 -67 2121 -516 2905 -1300 363 -363 654 -773
871 -1225 580 -1214 580 -2626 0 -3840 -349 -728 -905 -1362 -1587 -1808
-1121 -733 -2521 -921 -3789 -510 -884 286 -1647 832 -2208 1579 -858 1143
-1111 2659 -670 4019 286 884 832 1647 1579 2208 825 620 1876 938 2899 877z"/>
<path d="M4785 9109 c-338 -16 -763 -94 -1048 -191 l-68 -24 158 -121 c1000
-767 1823 -1727 2413 -2818 95 -174 278 -549 294 -602 4 -13 11 -23 15 -23 4
0 36 59 70 131 400 838 655 1750 746 2664 8 88 17 173 19 188 2 25 -5 34 -58
72 -169 121 -415 260 -632 359 -600 274 -1248 398 -1909 365z"/>
<path d="M3105 8652 c-369 -190 -669 -408 -974 -707 -483 -473 -818 -1006
-1033 -1644 -44 -131 -128 -444 -128 -476 0 -9 40 4 122 39 643 277 1403 492
2103 595 659 97 1393 122 2030 71 66 -6 156 -13 199 -17 l80 -6 -59 84 c-480
692 -1107 1351 -1781 1874 -162 126 -369 275 -381 275 -4 0 -84 -40 -178 -88z"/>
<path d="M7691 7963 c-30 -272 -105 -681 -182 -994 -255 -1038 -725 -2080
-1338 -2969 -59 -85 -111 -161 -115 -169 -10 -16 41 -13 339 20 865 96 1760
342 2550 702 l140 63 6 70 c13 140 9 559 -6 720 -76 794 -378 1534 -881 2164
-103 129 -469 510 -490 510 -6 0 -16 -53 -23 -117z"/>
<path d="M3805 6193 c-825 -71 -1606 -255 -2370 -558 -193 -77 -509 -215 -524
-230 -20 -21 -28 -556 -10 -760 69 -805 374 -1566 885 -2205 95 -119 499 -539
508 -529 2 2 11 65 20 139 116 960 388 1889 811 2767 197 409 472 877 727
1240 47 66 89 126 92 132 7 11 -44 12 -139 4z"/>
<path d="M3401 4607 c-347 -743 -588 -1535 -711 -2339 -26 -169 -70 -546 -70
-597 0 -19 170 -135 350 -238 492 -282 1040 -457 1625 -518 180 -19 576 -22
755 -6 192 18 433 58 608 101 195 48 357 99 346 109 -5 4 -72 55 -149 113
-513 387 -1027 885 -1460 1413 -336 410 -665 897 -926 1370 -80 147 -252 493
-300 607 -13 32 -26 58 -29 57 -3 0 -20 -32 -39 -72z"/>
<path d="M8970 4189 c-272 -125 -841 -326 -1195 -422 -1004 -274 -2035 -364
-3133 -276 -78 6 -145 9 -149 6 -3 -4 47 -82 112 -174 301 -429 587 -766 961
-1133 306 -300 627 -570 968 -814 l159 -114 81 37 c195 90 495 274 700 429
652 494 1156 1196 1414 1968 54 161 136 474 130 498 -3 13 -10 12 -48 -5z"/>
</g>
</svg>
